<?xml version="1.0" encoding="UTF-8"?>
<svg id="Layer_2" data-name="Layer 2" xmlns="http://www.w3.org/2000/svg" xmlns:xlink="http://www.w3.org/1999/xlink" viewBox="0 0 318.11 238.14">
  <defs>
    <style>
      .cls-1 {
        fill: #203a72;
      }

      .cls-2 {
        fill: #14a0de;
      }
    </style>
    <symbol id="icon" viewBox="0 0 318.11 238.14">
      <g>
        <g>
          <path class="cls-1" d="M159.05,10.44c-39.51,0-71.66,32.15-71.66,71.66s32.15,71.66,71.66,71.66,71.66-32.15,71.66-71.66S198.56,10.44,159.05,10.44ZM190.19,88.13l-43.53,26.79c-4.69,3.01-10.72-.33-10.72-6.03v-53.58c0-5.69,6.03-9.04,10.72-6.03l43.53,26.79c4.69,2.68,4.69,9.38,0,12.05Z"/>
          <g>
            <path class="cls-2" d="M264.53,135.34c11.05-15.74,16.74-34.15,16.74-53.24s-5.69-37.5-16.74-53.24c-1.67-2.34-4.02-3.68-6.7-4.02h-1c-2.34,0-4.35,1-6.03,2.34-3.68,3.35-4.35,8.71-1.67,12.72,8.71,12.39,13.06,27.12,13.06,42.19s-4.69,29.8-13.06,42.19c-2.68,4.02-2.34,9.04,1.34,12.39,2.34,2.01,4.69,2.68,7.37,2.68,2.68-.33,5.02-1.67,6.7-4.02Z"/>
            <path class="cls-2" d="M278.26,161.8c2.01,1.67,4.35,2.68,7.03,2.34,2.68-.33,5.02-1.67,6.36-3.68,17.08-22.77,26.45-49.89,26.45-78.35s-9.04-55.92-26.45-78.35c-1.67-2.01-4.02-3.35-6.36-3.68-2.68-.33-5.02.67-7.03,2.34l-.33.33c-3.68,3.35-4.02,8.71-1.34,12.39,14.73,19.42,22.43,42.86,22.43,67.3s-7.7,47.55-22.43,66.97c-2.68,3.68-2.34,9.04,1.67,12.39h0Z"/>
            <path class="cls-2" d="M53.58,135.34c-11.05-15.74-16.74-34.15-16.74-53.24s5.69-37.5,16.74-53.24c1.67-2.34,4.02-3.68,6.7-4.02h1c2.34,0,4.35,1,6.03,2.34,3.68,3.35,4.35,8.71,1.67,12.72-8.71,12.39-13.06,27.12-13.06,42.19s4.69,29.8,13.06,42.19c2.68,4.02,2.34,9.04-1.34,12.39-2.34,2.01-4.69,2.68-7.37,2.68-2.68-.33-5.02-1.67-6.7-4.02Z"/>
            <path class="cls-2" d="M39.85,161.8c-2.01,1.67-4.35,2.68-7.03,2.34-2.68-.33-5.02-1.67-6.36-3.68C9.04,138.02,0,110.9,0,82.1S9.04,26.18,26.45,3.75c1.67-2.01,4.02-3.35,6.36-3.68,2.68-.33,5.02.67,7.03,2.34l.33.33c3.68,3.35,4.02,8.71,1.34,12.39-14.73,19.42-22.77,42.53-22.77,66.97s7.7,47.55,22.43,66.97c3.01,4.02,2.68,9.38-1.34,12.72h0Z"/>
          </g>
        </g>
        <path class="cls-1" d="M303.71,194.95h-174.79c-4.35-13.39-16.74-23.1-31.48-23.1s-27.12,9.71-31.48,23.1H14.4c-5.36,0-10.05,4.35-10.05,10.05s4.35,10.05,10.05,10.05h51.57c4.35,13.39,16.74,23.1,31.48,23.1s27.12-9.71,31.48-23.1h174.79c5.36,0,10.05-4.35,10.05-10.05s-4.69-10.05-10.05-10.05ZM97.44,219.39c-8.04,0-14.4-6.36-14.4-14.4s6.36-14.4,14.4-14.4,14.4,6.36,14.4,14.4c0,7.7-6.36,14.4-14.4,14.4Z"/>
      </g>
    </symbol>
  </defs>
  <g id="Layer_1-2" data-name="Layer 1">
    <use width="318.11" height="238.14" xlink:href="#icon"/>
  </g>
</svg>