<svg id="Prime_Video_Logo_Mature_Market_Off_White_RGB" data-name="Prime Video Logo Mature Market Off White RGB" xmlns="http://www.w3.org/2000/svg" xmlns:xlink="http://www.w3.org/1999/xlink" viewBox="0 0 1200 520"><defs><style>.cls-1{fill:#f5f5f5;}.cls-2,.cls-3{fill-rule:evenodd;}.cls-2{fill:url(#linear-gradient);}.cls-3{fill:url(#linear-gradient-2);}</style><linearGradient id="linear-gradient" x1="380.63" y1="343.33" x2="822.49" y2="343.33" gradientUnits="userSpaceOnUse"><stop offset="0" stop-color="#00a8e1"/><stop offset="1" stop-color="#7be8f4"/></linearGradient><linearGradient id="linear-gradient-2" x1="380.63" y1="332.8" x2="822.49" y2="332.8" xlink:href="#linear-gradient"/></defs><path class="cls-1" d="M169.43,284.49a4.59,4.59,0,0,1-3.15-.91,4.3,4.3,0,0,1-1-3.24V169.61a4.26,4.26,0,0,1,1-3.24,4.54,4.54,0,0,1,3.15-.91h11.95a4.3,4.3,0,0,1,4.65,3.65l1.16,4.32a36.84,36.84,0,0,1,12-7.64A38.37,38.37,0,0,1,213.58,163q16.1,0,25.48,11.79t9.38,31.87q0,13.78-4.65,24.07t-12.62,15.85a31.1,31.1,0,0,1-18.26,5.56A38.72,38.72,0,0,1,200,250a31.1,31.1,0,0,1-10.46-6v36.35a4.58,4.58,0,0,1-.91,3.24,4.53,4.53,0,0,1-3.24.91H169.43Zm36.35-50.63q9.3,0,13.69-6.31t4.4-19.92q0-13.77-4.32-20.09t-13.78-6.31a31.59,31.59,0,0,0-16.27,4.48v43.66A30.56,30.56,0,0,0,205.78,233.86Z"/><path class="cls-1" d="M268.53,250.29a3.59,3.59,0,0,1-4.15-4.15V169.61a4.26,4.26,0,0,1,1-3.24,4.54,4.54,0,0,1,3.15-.91h12a4.3,4.3,0,0,1,4.65,3.65l2.16,9q6.65-7.31,12.53-10.38a26.72,26.72,0,0,1,12.53-3.07h2.32a4.9,4.9,0,0,1,3.32.91,4.3,4.3,0,0,1,1,3.24v13.94a4.59,4.59,0,0,1-.91,3.15,4.3,4.3,0,0,1-3.24,1c-.78,0-1.77-.05-3-.17s-2.77-.17-4.65-.17a49.43,49.43,0,0,0-9.3,1.08,45.63,45.63,0,0,0-9.3,2.74v55.78a4.59,4.59,0,0,1-.91,3.15,4.3,4.3,0,0,1-3.24,1H268.53Z"/><path class="cls-1" d="M341.78,152.35q-6.31,0-10.13-3.49a13.62,13.62,0,0,1,0-18.92q3.81-3.48,10.13-3.49t10.13,3.49a13.62,13.62,0,0,1,0,18.92Q348.09,152.35,341.78,152.35Zm-8,97.94a3.59,3.59,0,0,1-4.15-4.15V169.61a4.26,4.26,0,0,1,1-3.24,4.54,4.54,0,0,1,3.15-.91h15.94a4.58,4.58,0,0,1,3.24.91,4.53,4.53,0,0,1,.91,3.24v76.53a4.59,4.59,0,0,1-.91,3.15,4.3,4.3,0,0,1-3.24,1Z"/><path class="cls-1" d="M378.26,250.29a3.59,3.59,0,0,1-4.15-4.15V169.61a4.26,4.26,0,0,1,1-3.24,4.54,4.54,0,0,1,3.15-.91h11.95a4.3,4.3,0,0,1,4.65,3.65l1.33,4.48A71.91,71.91,0,0,1,412,165.37,44.82,44.82,0,0,1,426.57,163q14.94,0,21.08,10.62a68,68,0,0,1,15.94-8.13A48.52,48.52,0,0,1,479,163q11.61,0,18,6.47t6.39,18.09v58.6a4.59,4.59,0,0,1-.91,3.15,4.3,4.3,0,0,1-3.24,1H483.34a4.27,4.27,0,0,1-3.15-1,4.33,4.33,0,0,1-1-3.15V192.83q0-11.28-10.13-11.29A42,42,0,0,0,451,185.86v60.26a4.59,4.59,0,0,1-.91,3.15,4.3,4.3,0,0,1-3.24,1H430.88a3.59,3.59,0,0,1-4.15-4.15V192.83q0-11.28-10.13-11.29A40.4,40.4,0,0,0,398.34,186v60.09a4.59,4.59,0,0,1-.91,3.15,4.3,4.3,0,0,1-3.24,1H378.26Z"/><path class="cls-1" d="M560.39,252.94c-13.53,0-23.82-3.16-32.09-11.58-5.43-5.52-10.54-15.77-10.54-33.34,0-14.16,4.49-25,11.79-32.85s18.46-11.54,29-11.54c13.17,0,21,3,27,9a24.85,24.85,0,0,1,7,17.16c0,3.43.11,7-2.25,12a19.2,19.2,0,0,1-4.65,6.07c-9.79,9-29,8.36-35.47,8l-10.51-1.6c.69,7.28,2.73,13,7.19,16.25,4.19,3.06,8.79,4.34,18.19,4.34,4.71,0,11-.94,19.07-3.05.44-.12,1.28-.33,1.58-.38a3.76,3.76,0,0,1,1.53.07c.89.3,1.88,1.14,1.88,3.55v7.64a6.94,6.94,0,0,1-.7,3.74,6.24,6.24,0,0,1-2.93,2A69.93,69.93,0,0,1,560.39,252.94Zm10.09-62.21c0-8.1-5.71-10.41-12.74-10.41a16.34,16.34,0,0,0-12.17,5c-3,3.27-4.83,8.24-5.61,14.49,0,0,12.44,2.26,21.43.77C566.06,199.82,570.48,197.23,570.48,190.73Z"/><path class="cls-1" d="M907.13,252.94c-13.53,0-23.82-3.16-32.09-11.58-5.43-5.52-10.54-15.77-10.54-33.34,0-14.16,4.49-25,11.79-32.85s18.46-11.54,29-11.54c13.17,0,21,3,27,9a24.85,24.85,0,0,1,7,17.16c0,3.43.11,7-2.25,12a19.2,19.2,0,0,1-4.65,6.07c-9.79,9-29,8.36-35.47,8l-10.51-1.6c.69,7.28,2.73,13,7.19,16.25,4.19,3.06,8.79,4.34,18.19,4.34,4.71,0,11-.94,19.07-3.05.44-.12,1.28-.33,1.58-.38a3.76,3.76,0,0,1,1.53.07c.89.3,1.88,1.14,1.88,3.55v7.64a6.94,6.94,0,0,1-.7,3.74,6.24,6.24,0,0,1-2.93,2A70,70,0,0,1,907.13,252.94Zm10.08-62.21c0-8.1-5.71-10.41-12.74-10.41a16.34,16.34,0,0,0-12.17,5c-3,3.27-4.83,8.24-5.61,14.49,0,0,12.44,2.26,21.43.77C912.79,199.82,917.21,197.23,917.21,190.73Z"/><path class="cls-1" d="M665.55,250.29a7.62,7.62,0,0,1-2.74-.42,4.29,4.29,0,0,1-1.83-1.33,9.89,9.89,0,0,1-1.41-2.57L631.18,172.1c-.33-.88-.61-1.66-.83-2.32A5.82,5.82,0,0,1,630,168c0-1.66,1.1-2.49,3.32-2.49h16.6a6.18,6.18,0,0,1,3.9,1,6.39,6.39,0,0,1,1.91,3.32l17.1,58.76,17.43-58.76a6.32,6.32,0,0,1,1.91-3.32,6.24,6.24,0,0,1,3.9-1h16.1c2.21,0,3.32.83,3.32,2.49a5.87,5.87,0,0,1-.33,1.83c-.22.66-.5,1.44-.83,2.32L686,246a9.56,9.56,0,0,1-1.41,2.57,4.51,4.51,0,0,1-1.74,1.33,7.51,7.51,0,0,1-2.82.42Z"/><path class="cls-1" d="M738,152.35q-6.32,0-10.13-3.49a13.62,13.62,0,0,1,0-18.92q3.81-3.48,10.13-3.49t10.13,3.49a13.62,13.62,0,0,1,0,18.92Q744.25,152.35,738,152.35Zm-8,97.94a4.27,4.27,0,0,1-3.15-1,4.33,4.33,0,0,1-1-3.15V169.61a4.26,4.26,0,0,1,1-3.24,4.54,4.54,0,0,1,3.15-.91h15.94a4.58,4.58,0,0,1,3.24.91,4.53,4.53,0,0,1,.91,3.24v76.53a4.59,4.59,0,0,1-.91,3.15,4.3,4.3,0,0,1-3.24,1Z"/><path class="cls-1" d="M800.83,252.12a31.91,31.91,0,0,1-18.76-5.56,35.2,35.2,0,0,1-12.2-15.44,57.54,57.54,0,0,1-4.23-22.83q0-20.58,9.79-32.95T801.33,163a36,36,0,0,1,22.74,7.47V131.6a4.26,4.26,0,0,1,1-3.24,4.54,4.54,0,0,1,3.15-.91h15.94a4.58,4.58,0,0,1,3.24.91,4.53,4.53,0,0,1,.91,3.24V246.14a4.59,4.59,0,0,1-.91,3.15,4.3,4.3,0,0,1-3.24,1H830.88a4.14,4.14,0,0,1-4.65-3.65l-1-3.82A35.17,35.17,0,0,1,800.83,252.12Zm8-18.26a28,28,0,0,0,15.27-4.65V185.39a32.07,32.07,0,0,0-16.43-4.15q-8.8,0-13.11,6.56t-4.32,19.84q0,13.28,4.56,19.75T808.8,233.86Z"/><path class="cls-1" d="M992.72,252.78q-19.76,0-30.88-11.87t-11.12-33.12q0-21.07,11.12-32.95T992.72,163q19.75,0,30.88,11.87t11.12,32.95q0,21.26-11.12,33.12T992.72,252.78Zm0-18.59q17.43,0,17.43-26.39,0-26.22-17.43-26.23T975.29,207.8Q975.29,234.18,992.72,234.19Z"/><path class="cls-2" d="M376.23,296.42v1.36a6.26,6.26,0,0,0,1.94,3.53c59.22,57.61,137.44,92.23,224.3,92.23,62,0,134-21,183.63-60.48,8.21-6.57,1.18-16.35-7.21-12.52-55.66,25.45-116.15,37.77-171.2,37.77-81.57,0-160.57-24.12-224.42-64.17a6.08,6.08,0,0,0-3.21-1,3.79,3.79,0,0,0-3.83,3.31"/><path class="cls-3" d="M745.15,302.65a6.66,6.66,0,0,0-2.86,4.17v.81c.21,1.51,1.61,2.52,4.09,2.21,16-2.07,51.62-6.64,58,2.1s-7.06,44.73-13.05,60.77c-1.8,4.83,2.08,6.83,6.16,3.12,26.65-23.91,33.53-74,28.06-81.27-2.6-3.47-14.83-6.71-30-6.71-16.19,0-35.71,3.71-50.39,14.8"/></svg>